<?xml version="1.0" encoding="UTF-8"?>
<!DOCTYPE svg PUBLIC "-//W3C//DTD SVG 1.1//EN" "http://www.w3.org/Graphics/SVG/1.1/DTD/svg11.dtd">
<!-- Creator: CorelDRAW X7 -->
<svg xmlns="http://www.w3.org/2000/svg" xml:space="preserve" width="8.5in" height="11in" version="1.1" style="shape-rendering:geometricPrecision; text-rendering:geometricPrecision; image-rendering:optimizeQuality; fill-rule:evenodd; clip-rule:evenodd"
viewBox="0 0 8500 11000"
 xmlns:xlink="http://www.w3.org/1999/xlink">
 <defs>
  <style type="text/css">
   <![CDATA[
    .fil1 {fill:#2D3090}
    .fil0 {fill:#F06625}
   ]]>
  </style>
 </defs>
 <g id="Layer_x0020_1">
  <metadata id="CorelCorpID_0Corel-Layer"/>
  <g id="_2188748477424">
   <path class="fil0" d="M4623 4733c384,0 696,292 696,653 0,360 -312,652 -696,652 -385,0 -697,-292 -697,-652 0,-361 312,-653 697,-653zm-249 404l0 0 0 497 497 0 0 -497 -497 0z"/>
   <path class="fil1" d="M2822 5166c132,0 241,-18 347,89 92,-92 220,-89 347,-89 177,0 323,145 322,322l-1 525 -87 0c-155,0 -145,-101 -144,-178l0 -344c0,-81 -67,-148 -148,-148l-19 0c-81,0 -148,67 -148,148l0 522 -107 0 -30 0 -107 0 0 -522c0,-81 -67,-148 -148,-148l-19 0c-81,0 -148,67 -148,148l0 522 -232 0 0 -525c0,-177 145,-322 322,-322z"/>
   <path class="fil1" d="M6185 5488l-1 525 -87 0c-155,0 -145,-101 -144,-178l0 -344c0,-81 -67,-148 -148,-148l-19 0c-81,0 -148,67 -148,148l0 522 -107 0 -30 0 -107 0 0 -522c0,-96 27,-159 71,-205 192,-202 721,-174 720,202z"/>
   <path class="fil1" d="M1426 5174l103 0c193,0 351,158 351,351l0 123 -582 0c0,31 -2,63 2,94 9,76 65,137 154,137l47 0c73,0 134,-50 152,-118l218 0c-35,156 -175,274 -342,274l-103 0c-193,0 -351,-158 -351,-351l0 -159c0,-193 158,-351 351,-351zm28 177l0 0c-86,0 -156,70 -156,156l0 16 359 0 0 -16c0,-86 -70,-156 -156,-156l-47 0z"/>
   <path class="fil1" d="M2034 5511l391 0 0 175 -479 0 0 -88c0,-48 40,-87 88,-87z"/>
   <path class="fil1" d="M6608 5174l104 0c193,0 350,158 350,351l0 123 -582 0c0,31 -2,63 2,94 10,76 66,137 155,137l46 0c73,0 135,-50 152,-118l219 0c-35,156 -176,274 -342,274l-104 0c-193,0 -350,-158 -350,-351l0 -159c0,-193 157,-351 350,-351zm29 177l0 0c-86,0 -157,70 -157,156l0 16 360 0 0 -16c0,-86 -71,-156 -157,-156l-46 0z"/>
   <path class="fil0" d="M675 5589c0,34 -28,62 -62,62 -33,0 -61,-28 -61,-62 0,-247 100,-471 263,-633 162,-162 386,-263 633,-263 34,0 61,28 61,62 0,34 -27,61 -61,61 -213,0 -407,87 -547,227 -140,139 -226,333 -226,546zm195 0l0 0c0,-159 65,-304 170,-408 104,-105 249,-169 408,-169 34,0 61,-28 61,-62 0,-33 -27,-61 -61,-61 -193,0 -368,79 -495,205 -127,127 -205,302 -205,495 0,34 27,62 61,62 34,0 61,-28 61,-62z"/>
   <path class="fil1" d="M7056 5180c91,0 183,0 274,0 60,188 119,377 179,566 52,-158 105,-315 157,-473 20,-60 37,-89 132,-89 50,0 100,0 150,0 -116,317 -232,633 -348,950 -34,112 -123,169 -223,171 -100,3 -125,0 -187,0 0,-57 0,-114 0,-171 39,0 79,0 118,0 62,4 91,-25 87,-89 -113,-289 -226,-577 -339,-865z"/>
  </g>
 </g>
</svg>
